<svg id="visual" viewBox="0 0 960 540" width="960" height="540" xmlns="http://www.w3.org/2000/svg" xmlns:xlink="http://www.w3.org/1999/xlink" version="1.1"><rect x="0" y="0" width="960" height="540" fill="#001220"></rect><path d="M0 369L22.8 372.5C45.7 376 91.3 383 137 385.8C182.7 388.7 228.3 387.3 274 376.7C319.7 366 365.3 346 411.2 334.5C457 323 503 320 548.8 318.2C594.7 316.3 640.3 315.7 686 329.7C731.7 343.7 777.3 372.3 823 377.7C868.7 383 914.3 365 937.2 356L960 347L960 541L937.2 541C914.3 541 868.7 541 823 541C777.3 541 731.7 541 686 541C640.3 541 594.7 541 548.8 541C503 541 457 541 411.2 541C365.3 541 319.7 541 274 541C228.3 541 182.7 541 137 541C91.3 541 45.7 541 22.8 541L0 541Z" fill="#0c362c"></path><path d="M0 406L22.8 397.7C45.7 389.3 91.3 372.7 137 369.2C182.7 365.7 228.3 375.3 274 384.5C319.7 393.7 365.3 402.3 411.2 404.5C457 406.7 503 402.3 548.8 402.5C594.7 402.7 640.3 407.3 686 412.7C731.7 418 777.3 424 823 423.7C868.7 423.3 914.3 416.7 937.2 413.3L960 410L960 541L937.2 541C914.3 541 868.7 541 823 541C777.3 541 731.7 541 686 541C640.3 541 594.7 541 548.8 541C503 541 457 541 411.2 541C365.3 541 319.7 541 274 541C228.3 541 182.7 541 137 541C91.3 541 45.7 541 22.8 541L0 541Z" fill="#0c4c3d"></path><path d="M0 441L22.8 443.5C45.7 446 91.3 451 137 454C182.7 457 228.3 458 274 453.8C319.7 449.7 365.3 440.3 411.2 429.5C457 418.7 503 406.3 548.8 404.5C594.7 402.7 640.3 411.3 686 415.8C731.7 420.3 777.3 420.7 823 424C868.7 427.3 914.3 433.7 937.2 436.8L960 440L960 541L937.2 541C914.3 541 868.7 541 823 541C777.3 541 731.7 541 686 541C640.3 541 594.7 541 548.8 541C503 541 457 541 411.2 541C365.3 541 319.7 541 274 541C228.3 541 182.7 541 137 541C91.3 541 45.7 541 22.8 541L0 541Z" fill="#0a634f"></path><path d="M0 454L22.8 457C45.7 460 91.3 466 137 469.2C182.7 472.3 228.3 472.7 274 471.2C319.7 469.7 365.3 466.3 411.2 468.5C457 470.7 503 478.3 548.8 481.3C594.7 484.3 640.3 482.7 686 474.3C731.7 466 777.3 451 823 445.3C868.7 439.7 914.3 443.3 937.2 445.2L960 447L960 541L937.2 541C914.3 541 868.7 541 823 541C777.3 541 731.7 541 686 541C640.3 541 594.7 541 548.8 541C503 541 457 541 411.2 541C365.3 541 319.7 541 274 541C228.3 541 182.7 541 137 541C91.3 541 45.7 541 22.8 541L0 541Z" fill="#067b61"></path><path d="M0 486L22.8 487.2C45.7 488.3 91.3 490.7 137 492C182.7 493.3 228.3 493.7 274 497.5C319.7 501.3 365.3 508.7 411.2 510C457 511.3 503 506.7 548.8 499.8C594.7 493 640.3 484 686 484C731.7 484 777.3 493 823 496.3C868.7 499.7 914.3 497.3 937.2 496.2L960 495L960 541L937.2 541C914.3 541 868.7 541 823 541C777.3 541 731.7 541 686 541C640.3 541 594.7 541 548.8 541C503 541 457 541 411.2 541C365.3 541 319.7 541 274 541C228.3 541 182.7 541 137 541C91.3 541 45.7 541 22.8 541L0 541Z" fill="#009473"></path></svg>