<svg id="visual" viewBox="0 0 900 600" width="900" height="600" xmlns="http://www.w3.org/2000/svg" xmlns:xlink="http://www.w3.org/1999/xlink" version="1.1"><rect x="0" y="0" width="900" height="600" fill="#00082D"></rect><path d="M0 404L25 416.7C50 429.3 100 454.7 150 451.7C200 448.7 250 417.3 300 400.8C350 384.3 400 382.7 450 397.2C500 411.7 550 442.3 600 463.7C650 485 700 497 750 486.3C800 475.7 850 442.3 875 425.7L900 409L900 601L875 601C850 601 800 601 750 601C700 601 650 601 600 601C550 601 500 601 450 601C400 601 350 601 300 601C250 601 200 601 150 601C100 601 50 601 25 601L0 601Z" fill="#37da86" stroke-linecap="round" stroke-linejoin="miter"></path></svg>