<svg id="visual" viewBox="0 0 900 600" width="900" height="600" xmlns="http://www.w3.org/2000/svg" xmlns:xlink="http://www.w3.org/1999/xlink" version="1.1"><rect x="0" y="0" width="900" height="600" fill="#00082D"></rect><path d="M0 326L25 343.7C50 361.3 100 396.7 150 392.5C200 388.3 250 344.7 300 321.5C350 298.3 400 295.7 450 315.8C500 336 550 379 600 409C650 439 700 456 750 441.3C800 426.7 850 380.3 875 357.2L900 334L900 601L875 601C850 601 800 601 750 601C700 601 650 601 600 601C550 601 500 601 450 601C400 601 350 601 300 601C250 601 200 601 150 601C100 601 50 601 25 601L0 601Z" fill="#0066FF" stroke-linecap="round" stroke-linejoin="miter"></path></svg>