<svg id="visual" viewBox="0 0 960 540" width="960" height="540" xmlns="http://www.w3.org/2000/svg" xmlns:xlink="http://www.w3.org/1999/xlink" version="1.1"><rect x="0" y="0" width="960" height="540" fill="#00082D"></rect><path d="M0 277L26.7 275.8C53.3 274.7 106.7 272.3 160 270.3C213.3 268.3 266.7 266.7 320 269.7C373.3 272.7 426.7 280.3 480 284.2C533.3 288 586.7 288 640 285.7C693.3 283.3 746.7 278.7 800 279C853.3 279.3 906.7 284.7 933.3 287.3L960 290L960 541L933.3 541C906.7 541 853.3 541 800 541C746.7 541 693.3 541 640 541C586.7 541 533.3 541 480 541C426.7 541 373.3 541 320 541C266.7 541 213.3 541 160 541C106.7 541 53.3 541 26.7 541L0 541Z" fill="#03d368"></path><path d="M0 332L26.7 327.7C53.3 323.3 106.7 314.7 160 312.5C213.3 310.3 266.7 314.7 320 314.5C373.3 314.3 426.7 309.7 480 311.5C533.3 313.3 586.7 321.7 640 321.2C693.3 320.7 746.7 311.3 800 311.3C853.3 311.3 906.7 320.7 933.3 325.3L960 330L960 541L933.3 541C906.7 541 853.3 541 800 541C746.7 541 693.3 541 640 541C586.7 541 533.3 541 480 541C426.7 541 373.3 541 320 541C266.7 541 213.3 541 160 541C106.7 541 53.3 541 26.7 541L0 541Z" fill="#00c2ac"></path><path d="M0 345L26.7 348.2C53.3 351.3 106.7 357.7 160 357.5C213.3 357.3 266.7 350.7 320 347C373.3 343.3 426.7 342.7 480 346.3C533.3 350 586.7 358 640 358.5C693.3 359 746.7 352 800 349.2C853.3 346.3 906.7 347.7 933.3 348.3L960 349L960 541L933.3 541C906.7 541 853.3 541 800 541C746.7 541 693.3 541 640 541C586.7 541 533.3 541 480 541C426.7 541 373.3 541 320 541C266.7 541 213.3 541 160 541C106.7 541 53.3 541 26.7 541L0 541Z" fill="#00a9cf"></path><path d="M0 401L26.7 400.7C53.3 400.3 106.7 399.7 160 398.2C213.3 396.7 266.7 394.3 320 390.2C373.3 386 426.7 380 480 380.8C533.3 381.7 586.7 389.3 640 393C693.3 396.7 746.7 396.3 800 394.2C853.3 392 906.7 388 933.3 386L960 384L960 541L933.3 541C906.7 541 853.3 541 800 541C746.7 541 693.3 541 640 541C586.7 541 533.3 541 480 541C426.7 541 373.3 541 320 541C266.7 541 213.3 541 160 541C106.7 541 53.3 541 26.7 541L0 541Z" fill="#008cc6"></path><path d="M0 432L26.7 429.8C53.3 427.7 106.7 423.3 160 422.8C213.3 422.3 266.7 425.7 320 429C373.3 432.3 426.7 435.7 480 434.7C533.3 433.7 586.7 428.3 640 428.5C693.3 428.7 746.7 434.3 800 432.3C853.3 430.3 906.7 420.7 933.3 415.8L960 411L960 541L933.3 541C906.7 541 853.3 541 800 541C746.7 541 693.3 541 640 541C586.7 541 533.3 541 480 541C426.7 541 373.3 541 320 541C266.7 541 213.3 541 160 541C106.7 541 53.3 541 26.7 541L0 541Z" fill="#006eb8"></path><path d="M0 471L26.7 468.2C53.3 465.3 106.7 459.7 160 456.5C213.3 453.3 266.7 452.7 320 455C373.3 457.3 426.7 462.7 480 463.5C533.3 464.3 586.7 460.7 640 457.5C693.3 454.3 746.7 451.7 800 452.5C853.3 453.3 906.7 457.7 933.3 459.8L960 462L960 541L933.3 541C906.7 541 853.3 541 800 541C746.7 541 693.3 541 640 541C586.7 541 533.3 541 480 541C426.7 541 373.3 541 320 541C266.7 541 213.3 541 160 541C106.7 541 53.3 541 26.7 541L0 541Z" fill="#004ea6"></path><path d="M0 503L26.7 501.7C53.3 500.3 106.7 497.7 160 496.2C213.3 494.7 266.7 494.3 320 494.8C373.3 495.3 426.7 496.7 480 495.8C533.3 495 586.7 492 640 492C693.3 492 746.7 495 800 495.8C853.3 496.7 906.7 495.3 933.3 494.7L960 494L960 541L933.3 541C906.7 541 853.3 541 800 541C746.7 541 693.3 541 640 541C586.7 541 533.3 541 480 541C426.7 541 373.3 541 320 541C266.7 541 213.3 541 160 541C106.7 541 53.3 541 26.7 541L0 541Z" fill="#192c8c"></path></svg>