<svg id="visual" viewBox="0 0 900 600" width="900" height="600" xmlns="http://www.w3.org/2000/svg" xmlns:xlink="http://www.w3.org/1999/xlink" version="1.1"><rect x="0" y="0" width="900" height="600" fill="#00082D"></rect><path d="M0 443L25 453.2C50 463.3 100 483.7 150 481.3C200 479 250 454 300 440.7C350 427.3 400 425.7 450 437.2C500 448.7 550 473.3 600 490.5C650 507.7 700 517.3 750 508.8C800 500.3 850 473.7 875 460.3L900 447L900 601L875 601C850 601 800 601 750 601C700 601 650 601 600 601C550 601 500 601 450 601C400 601 350 601 300 601C250 601 200 601 150 601C100 601 50 601 25 601L0 601Z" fill="#26da7d" stroke-linecap="round" stroke-linejoin="miter"></path></svg>