<?xml version="1.0" encoding="UTF-8" standalone="no"?>
<!-- Created with Inkscape (http://www.inkscape.org/) -->

<svg
   width="210mm"
   height="297mm"
   viewBox="0 0 210 297"
   version="1.1"
   id="svg5"
   xml:space="preserve"
   inkscape:version="1.2.2 (732a01da63, 2022-12-09)"
   sodipodi:docname="TeesaLogo.svg"
   xmlns:inkscape="http://www.inkscape.org/namespaces/inkscape"
   xmlns:sodipodi="http://sodipodi.sourceforge.net/DTD/sodipodi-0.dtd"
   xmlns="http://www.w3.org/2000/svg"
   xmlns:svg="http://www.w3.org/2000/svg"><sodipodi:namedview
     id="namedview7"
     pagecolor="#505050"
     bordercolor="#eeeeee"
     borderopacity="1"
     inkscape:showpageshadow="0"
     inkscape:pageopacity="0"
     inkscape:pagecheckerboard="0"
     inkscape:deskcolor="#505050"
     inkscape:document-units="mm"
     showgrid="false"
     inkscape:lockguides="false"
     inkscape:zoom="0.93539562"
     inkscape:cx="291.85512"
     inkscape:cy="505.66839"
     inkscape:window-width="1366"
     inkscape:window-height="705"
     inkscape:window-x="-8"
     inkscape:window-y="-8"
     inkscape:window-maximized="1"
     inkscape:current-layer="layer1" /><defs
     id="defs2" /><g
     inkscape:label="Capa 1"
     inkscape:groupmode="layer"
     id="layer1"><path
       style="fill:#00e471;fill-opacity:1;stroke-width:0.755944"
       d="m 399.71617,624.29713 c -3.09079,-3.88783 -13.48128,-17.01961 -23.08997,-29.18172 l -17.47034,-22.11293 1.0861,-3.58917 c 0.59735,-1.97404 12.94488,-40.66822 27.43896,-85.98707 21.81409,-68.20648 26.59837,-82.44597 27.77837,-82.67695 0.78403,-0.15347 15.03663,-0.0277 31.67245,0.27938 l 30.24695,0.55841 22.81545,28.82448 22.81547,28.82447 -21.30358,0.46314 c -11.71696,0.25472 -25.90237,0.50985 -31.52312,0.56695 l -10.21955,0.10382 -26.74731,84.85473 c -14.71101,46.67009 -27.00222,85.14419 -27.31378,85.49799 -0.31157,0.3538 -3.09532,-2.53769 -6.1861,-6.42553 z"
       id="path1063"
       transform="scale(0.26458333)" /><a
       id="a2135"><path
         style="display:inline;fill:#00e471;fill-opacity:1;stroke-width:0.20001"
         d="m 88.196525,142.01255 c -0.81777,-1.02866 -3.56692,-4.50311 -6.10922,-7.721 l -4.62236,-5.85071 0.28736,-0.94964 c 0.15805,-0.52229 3.425,-10.76013 7.25989,-22.75074 5.77165,-18.046305 7.03749,-21.813835 7.3497,-21.874955 0.20744,-0.0406 3.97844,-0.007 8.380005,0.0739 l 8.00284,0.14775 6.03659,7.62648 6.03659,7.62647 -5.63657,0.12254 c -3.10011,0.0674 -6.85334,0.1349 -8.34049,0.15001 l -2.70393,0.0275 -7.076895,22.451145 c -3.89229,12.34813 -7.14434,22.52774 -7.22677,22.62135 -0.0824,0.0936 -0.81897,-0.67143 -1.63674,-1.70009 z"
         id="path1063-7" /><path
         style="display:inline;fill:#00ff85;fill-opacity:1;stroke-width:0.264583"
         d="m 104.20532,98.405015 -12.000618,-15.40078 16.400838,0.20001 12.20062,15.20077 z"
         id="path2130" /><path
         style="display:inline;fill:#00ff85;fill-opacity:1;stroke-width:0.264583"
         d="m 121.69409,121.38904 -12.00062,-15.40078 16.40084,0.20001 12.20062,15.20077 z"
         id="path2130-8" /></a><path
       style="fill:#00ff85;fill-opacity:1;stroke-width:0.141429"
       d="m 71.08702,98.611087 c -7.699266,-0.0354 -8.179866,-0.0523 -8.119078,-0.28403 0.03554,-0.13549 1.136854,-3.587594 2.447369,-7.671345 l 2.382758,-7.424999 8.137332,0.04387 c 4.475533,0.02413 8.161073,0.06761 8.190087,0.09662 0.02901,0.02901 -0.955974,3.493481 -2.188866,7.698816 -1.735505,5.919719 -2.289521,7.638458 -2.453764,7.612408 -0.116679,-0.0185 -3.894807,-0.0506 -8.395838,-0.0713 z"
       id="path2074" /></g></svg>
